# AST/ASF file generated using VICON BodyLanguage
# -----------------------------------------------
:version 1.10
:name VICON
:units
  mass 1.0
  length 0.45
  angle deg
:documentation
   .ast/.asf automatically generated from VICON data using
   VICON BodyBuilder and BodyLanguage model FoxedUp or BRILLIANT.MOD
:root
   order TX TY TZ RX RY RZ
   axis XYZ
   position 0 0 0  
   orientation 0 0 0 
:bonedata
  begin
     id 1 
     name lhipjoint
     direction 0.707368 -0.647095 0.284426 
     length 2.60678 
     axis 0 0 0  XYZ
  end
  begin
     id 2 
     name lfemur
     direction 0.34202 -0.939693 0  
     length 6.63812  
     axis 0 0 20  XYZ
    dof rx ry rz
    limits (-160.0 20.0)
           (-70.0 70.0)
           (-60.0 70.0)
  end
  begin
     id 3 
     name ltibia
     direction 0.34202 -0.939693 0   
     length 7.51178   
     axis 0 0 20   XYZ
    dof rx
    limits (-10.0 170.0)
  end
  begin
     id 4 
     name lfoot
     direction 0.121251 -0.333133 0.935051   
     length 1.83716   
     axis -90 7.62852e-016 20   XYZ
    dof rx rz
    limits (-45.0 90.0)
           (-70.0 20.0)
  end
  begin
     id 5 
     name ltoes
     direction 1.53611e-011 -4.21962e-011 1   
     length 0.916133   
     axis -90 7.62852e-016 20   XYZ
    dof rx
    limits (-90.0 20.0)
  end
  begin
     id 6 
     name rhipjoint
     direction -0.692419 -0.660507 0.290321   
     length 2.55385  
     axis 0 0 0  XYZ 
  end
  begin
     id 7 
     name rfemur
     direction -0.34202 -0.939693 0   
     length 7.29079   
     axis 0 0 -20   XYZ
    dof rx ry rz
    limits (-160.0 20.0)
           (-70.0 70.0)
           (-70.0 60.0)
  end
  begin
     id 8 
     name rtibia
     direction -0.34202 -0.939693 0   
     length 7.47143   
     axis 0 0 -20   XYZ
    dof rx
    limits (-10.0 170.0)
 end
 begin
     id 9 
     name rfoot
     direction -0.119907 -0.329441 0.936532   
     length 1.79439  
     axis -90 -7.62852e-016 -20   XYZ
    dof rx rz
    limits (-45.0 90.0)
           (-20.0 70.0)
  end
  begin
     id 10 
     name rtoes
     direction -1.53571e-011 -4.21961e-011 1   
     length 0.896039   
     axis -90 -7.62852e-016 -20   XYZ
    dof rx
    limits (-90.0 20.0)
  end
  begin
     id 11 
     name lowerback
     direction 0.0367721 0.992912 -0.113016   
     length 1.73542   
     axis 0 0 0   XYZ
    dof rx ry rz
    limits (-20.0 45.0)
           (-30.0 30.0)
           (-30.0 30.0)
  end
  begin
     id 12 
     name upperback
     direction -0.000314626 0.990678 0.136227   
     length 1.7514   
     axis 0 0 0   XYZ
    dof rx ry rz
    limits (-20.0 45.0)
           (-30.0 30.0)
           (-30.0 30.0)
  end
  begin
     id 13 
     name thorax
     direction -0.0226159 0.981151 0.191917   
     length 1.71471   
     axis 0 0 0   XYZ
    dof rx ry rz
    limits (-20.0 45.0)
           (-30.0 30.0)
           (-30.0 30.0)
  end
  begin
     id 14 
     name lowerneck
     direction 0.0219333 0.998071 0.0580739   
     length 1.65882   
     axis 0 0 0   XYZ
    dof rx ry rz
    limits (-20.0 45.0)
           (-30.0 30.0)
           (-30.0 30.0)
  end
  begin
     id 15 
     name upperneck
     direction 0.0384529 0.980058 -0.194957   
     length 1.6612   
     axis 0 0 0   XYZ
    dof rx ry rz
    limits (-20.0 45.0)
           (-30.0 30.0)
           (-30.0 30.0)
  end
  begin
     id 16
     name head
     direction 0.00592123 0.997421 -0.0715234  
     length 1.68077  
     axis 0 0 0   XYZ
    dof rx ry rz
    limits (-20.0 45.0)
           (-30.0 30.0)
           (-30.0 30.0)
  end
  begin
     id 17 
     name lclavicle
     direction 0.904803 0.417826 0.0821728  
     length 3.42227  
     axis 0 0 0   XYZ
    dof ry rz
    limits (-20.0 10.0)
           (0.0 20.0)
  end
  begin
     id 18 
     name lhumerus
     direction 1 -4.48965e-011 -2.68786e-027   
     length 5.11878   
     axis -180 -30 -90   XYZ
    dof rx ry rz
    limits (-60.0 90.0)
           (-90.0 90.0)
           (-90.0 90.0)
  end
  begin
     id 19
     name lradius
     direction 1 -4.48965e-011 2.61168e-028   
     length 3.59971   
     axis -180 -30 -90   XYZ
    dof rx
    limits (-10.0 170.0)
  end
  begin
     id 20
     name lwrist
     direction 1 -4.48965e-011 1.58672e-027   
     length 1.79985   
     axis -1.65735e-015 90 90   XYZ
    dof ry
    limits (-180.0 0.0)
 end
  begin
     id 21 
     name lhand
     direction 1 -4.48942e-011 3.17344e-027   
     length 0.62877   
     axis -2.02492e-015 90 90   XYZ
    dof rx rz
    limits (-90.0 90.0)
           (-45.0 45.0)
  end
  begin
     id 22 
     name lfingers
     direction 1 -4.49011e-011 6.34687e-027   
     length 0.506931   
     axis -4.04985e-015 90 90   XYZ
    dof rx
    limits (0.0 90.0)
  end
  begin
     id 23
     name lthumb
     direction 0.707107 -6.34982e-011 0.707107   
     length 0.727854   
     axis -90 45 2.85299e-015   XYZ
    dof rx rz
    limits (-45.0 45.0)
           (-45.0 45.0)
  end
  begin
     id 24 
     name rclavicle
     direction -0.945647 0.32488 0.0143075   
     length 3.52737  
     axis 0 0 0   XYZ 
    dof ry rz
    limits (-10.0 20.0)
           (-20.0 0.0)
  end
  begin
     id 25 
     name rhumerus
     direction -1 -4.48962e-011 1.92182e-027  
     length 5.4902   
     axis -180 30 90   XYZ
    dof rx ry rz
    limits (-90.0 60.0)
           (-90.0 90.0)
           (-90.0 90.0)
  end
  begin
     id 26 
     name rradius
     direction -1 -4.48967e-011 -5.97193e-028   
     length 3.20659   
     axis -180 30 90   XYZ
    dof rx
    limits (-10.0 170.0)
  end
  begin
     id 27 
     name rwrist
     direction -1 -4.48964e-011 1.58672e-027   
     length 1.6033   
     axis -1.65735e-015 -90 -90   XYZ
    dof ry
    limits (-180.0 0.0)
  end
  begin
     id 28
     name rhand
     direction -1 -4.49006e-011 3.17344e-027   
     length 0.691885   
     axis -2.02492e-015 -90 -90   XYZ
    dof rx rz
    limits (-90.0 90.0)
           (-45.0 45.0)
  end
  begin
     id 29
     name rfingers
     direction -1 -4.48908e-011 6.34687e-027   
     length 0.557815   
     axis -4.04985e-015 -90 -90   XYZ
    dof rx
    limits (0.0 90.0)
  end
  begin
     id 30
     name rthumb
     direction -0.707107 -6.34999e-011 0.707107   
     length 0.800915   
     axis -90 -45 -2.85299e-015   XYZ
    dof rx rz
    limits (-45.0 45.0)
           (-45.0 45.0)
  end
:hierarchy
  begin
    root lhipjoint rhipjoint lowerback
    lhipjoint lfemur
    lfemur ltibia
    ltibia lfoot
    lfoot ltoes
    rhipjoint rfemur
    rfemur rtibia
    rtibia rfoot
    rfoot rtoes
    lowerback upperback
    upperback thorax
    thorax lowerneck lclavicle rclavicle
    lowerneck upperneck
    upperneck head
    lclavicle lhumerus
    lhumerus lradius
    lradius lwrist
    lwrist lhand lthumb
    lhand lfingers
    rclavicle rhumerus
    rhumerus rradius
    rradius rwrist
    rwrist rhand rthumb
    rhand rfingers
  end

#!OML:ASF I:\Actors\actors\Patient Classification 1\Patient 1\Session 1\Subject1.ASF
:FULLY-SPECIFIED
:DEGREES
143
root -0.0113863 17.5331 8.14331 9.13959 -2.36476 -5.9046
lowerback 0.30865 1.42382 2.55796
upperback -11.8334 2.177 0.536213
thorax -12.8842 0.817781 -1.08565
lowerneck -13.0941 -3.49973 -0.570594
upperneck 29.7873 -7.10295 6.67455
head 12.2854 -2.41079 1.59537
rclavicle 2.98177e-015 5.96354e-015
rhumerus -56.2727 -41.1086 -50.1917
rradius 22.3459
rwrist 53.0161
rhand 11.6687 -29.9982
rfingers 7.12502
rthumb 36.7073 -56.1378
lclavicle 2.98177e-015 5.96354e-015
lhumerus -48.5283 27.9442 65.5272
lradius 21.1383
lwrist -33.6543
lhand -15.4519 -10.0272
lfingers 7.12502
lthumb 10.7289 19.6789
rfemur -4.72835 25.7401 20.0488
rtibia 1.20138
rfoot -11.4579 -26.5989
rtoes 4.08219
lfemur 5.89424 -49.2893 -15.8347
ltibia -4.18501
lfoot -37.5674 58.7061
ltoes 22.5978
144
root -0.0112278 17.5332 8.14132 9.13904 -2.39854 -5.90826
lowerback 0.299354 1.4078 2.53061
upperback -11.8223 2.15474 0.559898
thorax -12.8676 0.811836 -1.04175
lowerneck -13.1158 -3.50269 -0.55324
upperneck 29.7806 -7.09896 6.63229
head 12.2843 -2.41235 1.57641
rclavicle 2.14687e-014 9.54166e-015
rhumerus -56.2019 -41.159 -50.1846
rradius 22.2918
rwrist 53.0786
rhand 11.6444 -29.8789
rfingers 7.12502
rthumb 36.6842 -56.0244
lclavicle 2.14687e-014 9.54166e-015
lhumerus -48.5418 28.0162 65.51
lradius 21.1664
lwrist -33.684
lhand -15.5153 -9.98905
lfingers 7.12502
lthumb 10.6677 19.7201
rfemur -4.7486 25.711 20.0389
rtibia 1.21014
rfoot -11.4816 -26.5238
rtoes 4.27196
lfemur 5.86263 -49.1892 -15.804
ltibia -4.18118
lfoot -37.374 58.6751
ltoes 22.5418
145
root -0.0115261 17.5327 8.1401 9.15916 -2.42914 -5.91333
lowerback 0.269083 1.39503 2.50743
upperback -11.8278 2.13628 0.577705
thorax -12.8574 0.806704 -1.00662
lowerneck -13.0806 -3.50856 -0.585505
upperneck 29.7407 -7.10938 6.67663
head 12.2646 -2.41739 1.59725
rclavicle 1.68967e-014 3.97569e-015
rhumerus -56.1561 -41.2021 -50.1948
rradius 22.2548
rwrist 53.1499
rhand 11.5311 -29.8935
rfingers 7.12502
rthumb 36.577 -56.0662
lclavicle 1.68967e-014 3.97569e-015
lhumerus -48.5635 28.1139 65.4507
lradius 21.1427
lwrist -33.7894
lhand -15.5695 -9.95975
lfingers 7.12502
lthumb 10.6154 19.7521
rfemur -4.78801 25.7049 20.0263
rtibia 1.21581
rfoot -11.5196 -26.4692
rtoes 4.33673
lfemur 5.78869 -49.0919 -15.7409
ltibia -4.16847
lfoot -37.4078 58.5964
ltoes 22.7205
146
root -0.0119964 17.5322 8.13944 9.1434 -2.45609 -5.87833
lowerback 0.270966 1.39347 2.46448
upperback -11.8334 2.13013 0.568277
thorax -12.8663 0.807423 -0.992473
lowerneck -12.9938 -3.5364 -0.669676
upperneck 29.6902 -7.15644 6.78452
head 12.2368 -2.43826 1.64646
rclavicle 7.95139e-015 1.19271e-014
rhumerus -56.1739 -41.2302 -50.2103
rradius 22.2619
rwrist 53.1457
rhand 11.4655 -30.0042
rfingers 7.12502
rthumb 36.5149 -56.1926
lclavicle 7.95139e-015 1.19271e-014
lhumerus -48.5582 28.0982 65.4635
lradius 21.1195
lwrist -33.782
lhand -15.5635 -9.85801
lfingers 7.12502
lthumb 10.6212 19.8536
rfemur -4.78241 25.672 19.9912
rtibia 1.22322
rfoot -11.5051 -26.4355
rtoes 4.23156
lfemur 5.80348 -49.0817 -15.7985
ltibia -4.15323
lfoot -37.5076 58.5861
ltoes 22.8304
147
root -0.0126775 17.5318 8.13864 9.13245 -2.49102 -5.85918
lowerback 0.276089 1.40126 2.43921
upperback -11.8425 2.13861 0.562583
thorax -12.8805 0.813501 -0.985842
lowerneck -12.9307 -3.56929 -0.757524
upperneck 29.6709 -7.2039 6.86268
head 12.2252 -2.46194 1.685
rclavicle -1.2424e-014 -4.37326e-015
rhumerus -56.1621 -41.2214 -50.2456
rradius 22.2755
rwrist 53.0798
rhand 11.4977 -29.9999
rfingers 7.12502
rthumb 36.5455 -56.1806
lclavicle -1.2424e-014 -4.37326e-015
lhumerus -48.5723 28.1177 65.4402
lradius 21.0979
lwrist -33.8151
lhand -15.5109 -9.86311
lfingers 7.12502
lthumb 10.6719 19.8459
rfemur -4.77977 25.6739 19.9796
rtibia 1.2439
rfoot -11.4719 -26.4255
rtoes 4.17691
lfemur 5.83305 -49.0691 -15.8465
ltibia -4.14625
lfoot -37.42 58.6172
ltoes 22.7121
